<?xml version="1.0" encoding="iso-8859-1"?>
<!-- Generator: Adobe Illustrator 16.0.0, SVG Export Plug-In . SVG Version: 6.00 Build 0)  -->
<!DOCTYPE svg PUBLIC "-//W3C//DTD SVG 1.1//EN" "http://www.w3.org/Graphics/SVG/1.1/DTD/svg11.dtd">
<svg version="1.1" id="Capa_1" xmlns="http://www.w3.org/2000/svg" xmlns:xlink="http://www.w3.org/1999/xlink" x="0px" y="0px"
	 width="70.074px" height="70.074px" viewBox="0 0 70.074 70.074" style="enable-background:new 0 0 70.074 70.074; fill:#56b887;"
	 xml:space="preserve">
<g>
	<path d="M67.679,14.684v-4.172H2.392v4.172H0v44.88h70.074v-44.88H67.679z M4.725,14.684v-1.836h29.142v1.836v40.792H4.725V14.684z
		 M38.936,14.684v12.506l3.748-2.628l3.754,2.628V14.684v-1.836h18.906v1.836v40.792H36.203V14.684v-1.836h2.732V14.684z
		 M7.781,42.383h22.895v2.336H7.781V42.383z M7.568,48.681h22.895v2.336H7.568V48.681z M10.393,27.615l0.598-1.862h3.468
		l0.619,1.862h1.012h1.013l-3.234-9.143H12.76h-1.107L8.42,27.615h0.988H10.393z M12.733,20.512l1.212,3.671h-2.427L12.733,20.512z
		 M30.461,20.721H18.493v-2.335h11.969V20.721z M30.461,26.684H18.493v-2.336h11.969V26.684z M30.461,32.644H7.99v-2.336h22.471
		V32.644z M30.461,38.605H7.99V36.27h22.471V38.605z M51.479,44.178c-0.201,0.171-0.461,0.278-0.776,0.311v-2.394
		c0.372,0.121,0.644,0.258,0.812,0.427c0.219,0.205,0.328,0.463,0.328,0.78C51.84,43.674,51.721,43.961,51.479,44.178z
		 M50.145,40.291c-0.244-0.103-0.44-0.208-0.584-0.322c-0.258-0.2-0.393-0.442-0.393-0.729c0-0.343,0.116-0.614,0.345-0.803
		c0.164-0.142,0.374-0.229,0.632-0.265V40.291z M43.222,42.597l-1.912,3.251l3.739,0.497l0.144,3.769l3.408-1.608l2.162,3.091
		l2.005-3.191l3.49,1.428l-0.043-3.768l3.709-0.685l-2.076-3.144l2.756-2.582l-3.451-1.523l0.924-3.655l-3.728,0.573l-1.204-3.571
		l-2.824,2.497l-2.945-2.352l-1.023,3.625l-3.75-0.392l1.102,3.609l-3.365,1.701L43.222,42.597z M47.421,42.933l1.668,0.016
		c0,0.005,0,0.009,0,0.014h0.014c-0.023,0.526,0.072,0.915,0.296,1.159c0.169,0.187,0.415,0.296,0.719,0.349l0.025-2.558
		c-0.867-0.271-1.497-0.584-1.887-0.939c-0.431-0.39-0.637-0.903-0.637-1.542c0-0.784,0.254-1.405,0.767-1.861
		c0.232-0.208,0.507-0.36,0.812-0.475c0.109-0.041,0.244-0.046,0.364-0.073c0.192-0.045,0.37-0.104,0.584-0.12v-0.859h0.053V36.04
		l0.276,0.002h0.228v0.005h0.051l-0.01,0.843c0.22,0.012,0.388,0.068,0.58,0.109c0.146,0.032,0.319,0.041,0.451,0.085
		c0.319,0.111,0.598,0.269,0.826,0.477c0.492,0.442,0.732,1.067,0.728,1.875l-1.569-0.017c0-0.004,0-0.007,0-0.011h-0.021
		c0-0.452-0.096-0.775-0.292-0.972c-0.15-0.151-0.393-0.237-0.712-0.268l-0.025,2.313l0.053,0.019l0.087,0.029
		c0.958,0.273,1.633,0.618,2.034,1.02c0.397,0.401,0.598,0.942,0.598,1.638c0,0.808-0.269,1.444-0.818,1.919
		c-0.01,0.009-0.023,0.009-0.032,0.018l0,0c-0.016,0.017-0.034,0.021-0.048,0.032c-0.239,0.193-0.507,0.352-0.812,0.463
		c-0.166,0.053-0.367,0.066-0.547,0.101c-0.178,0.032-0.335,0.084-0.527,0.096v1.193h-0.048v0.002l-0.278-0.002h-0.23v-0.003h-0.048
		l0.012-1.186c-0.196-0.017-0.345-0.073-0.522-0.107c-0.2-0.041-0.431-0.057-0.609-0.128c-0.271-0.101-0.494-0.253-0.702-0.422
		c-0.043-0.034-0.098-0.048-0.139-0.082c0,0,0-0.002-0.005-0.002c-0.009-0.01-0.022-0.012-0.032-0.021
		c-0.465-0.44-0.695-1.082-0.688-1.91L47.421,42.933z"/>
</g>
<g>
</g>
<g>
</g>
<g>
</g>
<g>
</g>
<g>
</g>
<g>
</g>
<g>
</g>
<g>
</g>
<g>
</g>
<g>
</g>
<g>
</g>
<g>
</g>
<g>
</g>
<g>
</g>
<g>
</g>
</svg>
