<?xml version="1.0" encoding="UTF-8"?> <svg xmlns="http://www.w3.org/2000/svg" viewBox="0 0 225.55 64.35"><defs><style>.cls-1{fill:#e3232c;}.cls-2{fill:#57585b;}</style></defs><title>new-sc-logo-dark</title><g id="Layer_2" data-name="Layer 2"><g id="Layer_1-2" data-name="Layer 1"><path class="cls-1" d="M40.45,41.82a15.18,15.18,0,0,0-10.17-7.51c-.25.11-.5.2-.76.29h0a7.74,7.74,0,0,1-7.41-1.53h0a7.76,7.76,0,0,1,4.52-13.64h0l.55,0a7.77,7.77,0,0,1,6.3,3.23h0l2.58-7.76.81-2.44L39.6,4.19l.34-1h0l.35-1.06-.35,1.06A26.88,26.88,0,0,0,32.88.6v0h0A26.65,26.65,0,0,0,26.59,0,27.18,27.18,0,0,0,12,49.73h0a27.34,27.34,0,0,0,3.85,2.16h0a26.53,26.53,0,0,0,4.9,1.7,21.74,21.74,0,0,0,2.3.45h0l2.38-7.17a19.77,19.77,0,0,1,.75-39.44,19.4,19.4,0,0,1,4.33.26l-.06.19-.31.92-1.1,3.31A16.47,16.47,0,0,0,27.18,12a15.18,15.18,0,0,0-7.5,28.37h0a15.07,15.07,0,0,0,6.08,1.92h0c.39,0,.78.06,1.18.07h.24c.48,0,.95,0,1.41-.07h0a7.53,7.53,0,0,1,5.06,3.57,7.49,7.49,0,0,1,0,7.73,7.51,7.51,0,0,1-11,2l-2.34,7A15.16,15.16,0,0,0,42.34,49.73c0-.19,0-.37,0-.56A15,15,0,0,0,40.45,41.82Z"></path><path class="cls-1" d="M24.25,27.18a2.93,2.93,0,1,0,2.93-2.93A2.93,2.93,0,0,0,24.25,27.18Z"></path><path class="cls-2" d="M68.08,46.46a11.86,11.86,0,0,1-8-2.59,8.8,8.8,0,0,1-3-7h4.86a4.41,4.41,0,0,0,1.72,3.7,7.77,7.77,0,0,0,8.46.17,3.67,3.67,0,0,0,1.67-3.13,4.12,4.12,0,0,0-.08-.81,2.26,2.26,0,0,0-.29-.7c-.13-.22-.26-.41-.38-.58a2.13,2.13,0,0,0-.58-.5c-.27-.16-.48-.3-.65-.41a3.5,3.5,0,0,0-.81-.37l-.85-.3c-.2-.08-.52-.17-1-.29l-1-.24-1-.26a28.47,28.47,0,0,1-5.36-1.68A6.78,6.78,0,0,1,57.65,26a9,9,0,0,1-.08-1.18,7.46,7.46,0,0,1,2.75-6.14,11.54,11.54,0,0,1,7.45-2.21,10.7,10.7,0,0,1,7.39,2.39,8.36,8.36,0,0,1,2.67,6.55H73.12a3.92,3.92,0,0,0-1.54-3.3,6.13,6.13,0,0,0-3.91-1.19,6.86,6.86,0,0,0-3.79,1,3.08,3.08,0,0,0-1.51,2.72,3.22,3.22,0,0,0,.21,1.18,2.42,2.42,0,0,0,.71.94,7.17,7.17,0,0,0,1,.7,6.6,6.6,0,0,0,1.36.57c.59.19,1.08.34,1.48.45l1.7.43a31.13,31.13,0,0,1,5.43,1.72,7.21,7.21,0,0,1,4.35,5.55,10.6,10.6,0,0,1,.1,1.4,8.34,8.34,0,0,1-1.43,4.88,8.58,8.58,0,0,1-3.82,3.05A13.62,13.62,0,0,1,68.08,46.46Z"></path><path class="cls-2" d="M83.79,46V15.48H88.4V46Z"></path><path class="cls-2" d="M94.89,20.05V15.28h4.78v4.77ZM95,46V23.53h4.61V46Z"></path><path class="cls-2" d="M116.27,46.56a11.86,11.86,0,0,1-6-1.55A11,11,0,0,1,106,40.77a12.52,12.52,0,0,1,0-12,11,11,0,0,1,4.24-4.22,11.87,11.87,0,0,1,6-1.54,11.4,11.4,0,0,1,7.18,2.34,10.77,10.77,0,0,1,4,6.22h-4.57a7,7,0,0,0-2.64-3,7.22,7.22,0,0,0-4-1.11,6.7,6.7,0,0,0-5,2.12,7.25,7.25,0,0,0-2,5.24,7.34,7.34,0,0,0,2,5.26,6.67,6.67,0,0,0,5,2.14A7,7,0,0,0,120.21,41a7.29,7.29,0,0,0,2.63-3.19h4.65a11,11,0,0,1-4,6.34A11.38,11.38,0,0,1,116.27,46.56Z"></path><path class="cls-2" d="M146.64,46l-6.73-9.59h-2.8V46h-4.62V15.48h4.62V32.23H140l6.06-8.7h5.49l-7.62,10.79L152.29,46Z"></path><path class="cls-2" d="M165,46.56A11.87,11.87,0,0,1,159,45a11.07,11.07,0,0,1-4.24-4.24,12.59,12.59,0,0,1,0-12A11.09,11.09,0,0,1,159,24.52a11.91,11.91,0,0,1,6-1.54,11.39,11.39,0,0,1,7.17,2.34,10.84,10.84,0,0,1,4,6.22h-4.58a7,7,0,0,0-2.64-3A7.21,7.21,0,0,0,165,27.39,6.73,6.73,0,0,0,160,29.51a7.29,7.29,0,0,0-2,5.24A7.34,7.34,0,0,0,160,40a6.68,6.68,0,0,0,5,2.14A7,7,0,0,0,169,41a7.29,7.29,0,0,0,2.63-3.19h4.66a11,11,0,0,1-4,6.34A11.35,11.35,0,0,1,165,46.56Z"></path><path class="cls-2" d="M199.61,23.51l3.56,0V46h-3.72L199,43.27a11,11,0,0,1-3.64,2.43A12.33,12.33,0,0,1,184.87,45a11,11,0,0,1-4.2-4.24,12.65,12.65,0,0,1,0-12.06,11,11,0,0,1,4.2-4.21,12.4,12.4,0,0,1,10.53-.66,10.79,10.79,0,0,1,3.66,2.48ZM185.93,40a7.34,7.34,0,0,0,12.6-5.27,7.35,7.35,0,1,0-14.69,0A7.18,7.18,0,0,0,185.93,40Z"></path><path class="cls-2" d="M209.76,46V15.48h4.61V46Z"></path><path class="cls-2" d="M220.93,46V15.48h4.62V46Z"></path></g></g></svg> 